<?xml version="1.0" encoding="utf-8"?>
<!-- Generator: Adobe Illustrator 19.0.0, SVG Export Plug-In . SVG Version: 6.00 Build 0)  -->
<svg version="1.1" id="Layer_1" xmlns="http://www.w3.org/2000/svg" xmlns:xlink="http://www.w3.org/1999/xlink" x="0px" y="0px"
	 viewBox="-101 225.4 392.4 390.5" style="enable-background:new -101 225.4 392.4 390.5;" xml:space="preserve">
<style type="text/css">
	.st0{fill:#FFFFFF;stroke:#000000;stroke-miterlimit:10;}
	.st1{display:none;fill:#2E3192;}
	.st2{display:none;fill:#FFFFFF;}
	.st3{fill:#414042;stroke:#414042;stroke-width:4;stroke-miterlimit:10;}
	.st4{fill:none;stroke:#414042;stroke-miterlimit:10;}
	.st5{display:none;}
	.st6{display:inline;}
	.st7{display:inline;fill:none;stroke:#000000;stroke-width:4;stroke-miterlimit:10;}
	.st8{fill:#414042;}
	.st9{fill:#F7941E;}
	.st10{fill:none;stroke:#000000;stroke-width:8;stroke-miterlimit:10;}
	.st11{font-family:'MyriadPro-Regular';}
	.st12{font-size:53.8047px;}
	.st13{fill:#FFCF1E;}
	.st14{fill:none;stroke:#F7941E;stroke-width:8;stroke-miterlimit:10;}
	.st15{display:inline;fill:#010101;}
	.st16{fill:none;stroke:#000000;stroke-width:4;stroke-miterlimit:10;}
</style>
<circle class="st0" cx="96.7" cy="420.7" r="142.7"/>
<g id="Layer_4">
</g>
<g id="Layer_1_1_">
	<rect x="-225.4" y="213.5" class="st1" width="608" height="394"/>
	<rect x="-215.9" y="166" class="st2" width="612" height="523"/>
	<path class="st3" d="M273.7,433.6l12.6-4.3l0.1-11.6l-12.5-4.6l-9.8-0.1c-0.1-2.9-0.4-5.8-0.7-8.7l9.6-1.6l11.6-6.4l-1.9-11.5
		l-13.1-2.4L260,384c-0.6-2.8-1.4-5.7-2.2-8.5l9.2-3.2l10.3-8.3l-3.8-11l-13.3-0.1l-9.2,3.2c-1.1-2.7-2.3-5.3-3.6-8l8.5-4.8l8.7-10
		l-5.7-10.1l-13.1,2.3l-8.5,4.8c-1.6-2.4-3.2-4.8-4.9-7.2l7.6-6.2l6.9-11.4l-7.4-9L227,301l-7.6,6.2c-2-2.2-4-4.2-6.1-6.3l6.4-7.4
		l4.8-12.4l-8.8-7.6l-11.5,6.6l-6.3,7.4c-2.3-1.8-4.7-3.5-7.1-5.1l5-8.4l2.6-13l-10-5.9l-10.2,8.5l-5,8.4c-2.6-1.3-5.2-2.6-7.9-3.8
		l3.4-9.1l0.3-13.3l-10.9-4.1l-8.6,10.1l-3.4,9.1c-2.8-0.9-5.6-1.6-8.4-2.4l1.8-9.6l-2-13.1l-11.4-2.2l-6.7,11.5l-1.8,9.6
		c-2.9-0.4-5.8-0.7-8.7-0.9l0.1-9.8l-4.3-12.6l-11.6-0.1l-4.6,12.5l-0.1,9.8c-2.9,0.1-5.8,0.4-8.7,0.7l-1.6-9.6l-6.4-11.6L60.2,235
		l-2.4,13.1l1.6,9.6c-2.8,0.6-5.7,1.4-8.5,2.2l-3.2-9.2l-8.2-10.3l-11,3.8l-0.1,13.3l3.2,9.2c-2.7,1.1-5.3,2.3-8,3.6l-4.8-8.5
		l-10-8.7l-10.1,5.7L1,271.9l4.8,8.5c-2.4,1.6-4.8,3.2-7.2,4.9l-6.2-7.6l-11.4-6.9l-9,7.4l4.5,12.5l6.2,7.6c-2.2,2-4.2,4-6.3,6.1
		L-31,298l-12.4-4.8L-51,302l6.6,11.5l7.4,6.3c-1.8,2.3-3.5,4.7-5.1,7.1l-8.4-5l-13-2.6l-5.9,10l8.5,10.2l8.4,5
		c-1.3,2.6-2.6,5.2-3.8,7.9l-9.1-3.4l-13.3-0.3l-4.1,10.9l10.1,8.6l9.1,3.4c-0.9,2.8-1.6,5.6-2.4,8.4l-9.6-1.8l-13.1,2l-2.2,11.4
		l11.5,6.7l9.6,1.8c-0.4,2.9-0.7,5.8-0.9,8.7l-9.8-0.1l-12.6,4.3l-0.1,11.6l12.5,4.6l9.8,0.1c0.1,2.9,0.4,5.8,0.7,8.7l-9.6,1.6
		l-11.6,6.4l1.9,11.5l13.1,2.4l9.6-1.6c0.6,2.8,1.4,5.7,2.2,8.5l-9.2,3.2l-10.3,8.3l3.8,11l13.3,0.1l9.2-3.2c1.1,2.7,2.3,5.3,3.6,8
		l-8.5,4.8l-8.7,10l5.7,10.1l13.1-2.3l8.5-4.8l0,0l25.2-14.2c-13.7-21.4-21.7-46.8-21.7-74.1c0-75.8,61.5-137.3,137.3-137.3
		S234,347.9,234,423.7c0,28.6-8.7,55.1-23.6,77.1l25,14.5l0,0l1.6,0.9l7.1,4.1l12.8,2.5l5.9-10l-8.5-10.2l-8.4-5
		c1.3-2.6,2.6-5.2,3.8-7.9l9.1,3.4l13.3,0.3l4.1-10.9l-10.1-8.6l-9.1-3.4c0.9-2.8,1.6-5.6,2.4-8.4l9.6,1.8l13.1-2l2.2-11.4
		l-11.5-6.7l-9.6-1.8c0.4-2.9,0.7-5.8,0.9-8.7L273.7,433.6z"/>
	<path class="st3" d="M273.7,433l12.6-4.3l0.1-11.6l-12.5-4.6l-9.8-0.1c-0.1-2.9-0.4-5.8-0.7-8.7l9.6-1.6l11.6-6.4l-1.9-11.5
		l-13.1-2.4l-9.6,1.6c-0.6-2.8-1.4-5.7-2.2-8.5l9.2-3.2l10.3-8.3l-3.8-11l-13.3-0.1l-9.2,3.2c-1.1-2.7-2.3-5.3-3.6-8l8.5-4.8l8.7-10
		l-5.7-10.1l-13.1,2.3l-8.5,4.8l0,0l-25.2,14.2c13.7,21.4,21.7,46.8,21.7,74.1c0,75.8-61.5,137.3-137.3,137.3S-40.8,493.8-40.8,418
		c0-28.6,8.7-55.1,23.6-77.1l-25-14.5l0,0l-1.6-0.9l-7.1-4.1l-12.8-2.5l-5.9,10l8.5,10.2l8.4,5c-1.3,2.6-2.6,5.2-3.8,7.9l-9.1-3.4
		l-13.3-0.3l-4.1,10.9l10.1,8.6l9.1,3.4c-0.9,2.8-1.6,5.6-2.4,8.4l-9.6-1.8l-13.1,2l-2.2,11.4l11.5,6.7l9.6,1.8
		c-0.4,2.9-0.7,5.8-0.9,8.7l-9.8-0.1l-12.6,4.3l-0.1,11.6l12.5,4.6l9.8,0.1c0.1,2.9,0.4,5.8,0.7,8.7l-9.6,1.6l-11.6,6.4l1.9,11.5
		l13.1,2.4l9.6-1.6c0.6,2.8,1.4,5.7,2.2,8.5l-9.2,3.2l-10.3,8.3l3.8,11l13.3,0.1l9.2-3.2c1.1,2.7,2.3,5.3,3.6,8l-8.5,4.8l-8.7,10
		l5.7,10.1l13.1-2.3l8.5-4.8c1.6,2.4,3.2,4.8,4.9,7.2L-47,525l-6.6,11.4l7.4,9l12.5-4.5l7.6-6.2c2,2.2,4,4.2,6.1,6.3l-6.4,7.4
		l-4.8,12.4l8.8,7.6l11.5-6.6l6.3-7.4c2.3,1.8,4.7,3.5,7.1,5.1l-5,8.4l-2.6,13l10,5.9l10.2-8.5l5-8.4c2.6,1.3,5.2,2.6,7.9,3.8
		l-3.4,9.1l-0.3,13.3l10.9,4.1l8.6-10.1l3.4-9.1c2.8,0.9,5.6,1.6,8.4,2.4l-1.8,9.6l2,13.1l11.4,2.2l6.7-11.5l1.8-9.6
		c2.9,0.4,5.8,0.7,8.7,0.9l-0.1,9.8l4.3,12.6l11.6,0.1l4.6-12.5l0.1-9.8c2.9-0.1,5.8-0.4,8.7-0.7l1.6,9.6l6.4,11.6l11.5-1.9
		l2.4-13.1l-1.6-9.6c2.8-0.6,5.7-1.4,8.5-2.2l3.2,9.2l8.3,10.3l11-3.8l0.1-13.3l-3.2-9.2c2.7-1.1,5.3-2.3,8-3.6l4.8,8.5l10,8.7
		l10.1-5.7l-2.3-13.1l-4.8-8.5c2.4-1.6,4.8-3.2,7.2-4.9l6.2,7.6l11.4,6.9l9-7.4l-4.5-12.5l-6.2-7.6c2.2-2,4.2-4,6.3-6.1l7.4,6.4
		l12.4,4.8l7.6-8.8l-6.6-11.5l-7.4-6.3c1.8-2.3,3.5-4.7,5.1-7.1l8.4,5l13,2.6l5.9-10l-8.5-10.2l-8.4-5c1.3-2.6,2.6-5.2,3.8-7.9
		l9.1,3.4l13.3,0.3l4.1-10.9l-10.1-8.6l-9.1-3.4c0.9-2.8,1.6-5.6,2.4-8.4l9.6,1.8l13.1-2l2.2-11.4l-11.5-6.7l-9.6-1.8
		c0.4-2.9,0.7-5.8,0.9-8.7L273.7,433z"/>
	<g id="Layer_2">
		<g>
			<path d="M143.2,435.1l4.6-37.7l-24.7-25.2l-39.7,4l-0.8,0.8l32.2,32.9l0,0l-4.8,10l-4.8,10l-10.1,4.6L85,439.1l0,0l-32.2-32.9
				L52,407l-4.8,39.6l24.7,25.2l37.8-3.8l74.4,76c11.7-10.6,23.3-21.2,34.2-32.5L143.2,435.1z"/>
			<path class="st4" d="M143.2,435.1l4.6-37.7l-24.7-25.2l-39.7,4l-0.8,0.8l32.2,32.9l0,0l-4.8,10l-4.8,10l-10.1,4.6L85,439.1l0,0
				l-32.2-32.9L52,407l-4.8,39.6l24.7,25.2l37.8-3.8l74.4,76c11.7-10.6,23.3-21.2,34.2-32.5L143.2,435.1z"/>
		</g>
		<g class="st5">
			<path class="st6" d="M137,391.3l-37.9,2.5l-71.8-78.4c-12,10.2-24,20.4-35.3,31.2l72.3,79l-5.9,37.6l23.8,26l39.8-2.7l0.8-0.8
				l-31.1-34l0,0l5.2-9.8l5.2-9.9l10.3-4.3l10.3-4.3l0,0l31.1,34l0.8-0.8l6.2-39.5L137,391.3z"/>
			<path class="st7" d="M137,391.3l-37.9,2.5l-71.8-78.4c-12,10.2-24,20.4-35.3,31.2l72.3,79l-5.9,37.6l23.8,26l39.8-2.7l0.8-0.8
				l-31.1-34l0,0l5.2-9.8l5.2-9.9l10.3-4.3l10.3-4.3l0,0l31.1,34l0.8-0.8l6.2-39.5L137,391.3z"/>
		</g>
		<g>
			<path class="st8" d="M96.7,250.8c-93.8,0-169.9,76.1-169.9,169.9S2.9,590.6,96.7,590.6s169.9-76.1,169.9-169.9
				C266.6,326.8,190.5,250.8,96.7,250.8z M96.7,535.6c-63.5,0-115-51.5-115-115s51.5-115,115-115s115,51.5,115,115
				S160.2,535.6,96.7,535.6z"/>
		</g>
		<g>
			<path class="st9" d="M-5.5,473.2l-87.7,88c-6.3,6.3-6.3,16.5,0,22.8l27.2,27.2c6.3,6.3,16.5,6.3,22.8,0l87.7-88
				C23.1,512.1,5.5,494.7-5.5,473.2z"/>
		</g>
		<g>
			<path class="st9" d="M286.7,257.2l-27.2-27.1c-6.3-6.3-16.5-6.3-22.8,0l-87.7,88c21.4,10.9,39,28.4,50,49.8l87.7-88
				C293,273.7,293,263.5,286.7,257.2z"/>
		</g>
		<g>
			<path class="st10" d="M96.7,305.6c-63.5,0-115,51.5-115,115s51.5,115,115,115s115-51.5,115-115S160.2,305.6,96.7,305.6z
				 M96.7,534.4c-62.8,0-113.7-51-113.7-113.8S33.9,306.9,96.7,306.9s113.7,50.9,113.7,113.7C210.5,483.4,159.5,534.4,96.7,534.4z"
				/>
		</g>
		<g class="st5">
			
				<image style="display:inline;overflow:visible;opacity:0.75;enable-background:new    ;" width="829" height="300" xlink:href="22DAE299.png"  transform="matrix(0.2383 0 0 0.2352 -8.3671 364.7576)">
			</image>
			<g class="st6">
				<text transform="matrix(1 0 0 1 -3.3671 414.7923)" class="st11 st12">SATURN</text>
			</g>
		</g>
		<g class="st5">
			
				<image style="display:inline;overflow:visible;opacity:0.75;enable-background:new    ;" width="754" height="300" xlink:href="22DAE29B.png"  transform="matrix(0.2381 0 0 0.2352 2.8418 411.6927)">
			</image>
			<g class="st6">
				<text transform="matrix(1 0 0 1 7.8418 461.7274)" class="st11 st12">SERVER</text>
			</g>
		</g>
		<path class="st13" d="M-101,398.3"/>
		<g>
			<path class="st14" d="M91.8,297.2C23.6,300-29.4,357.4-26.7,425.6c2.7,68.2,60.2,121.2,128.3,118.5
				c68.1-2.7,121.2-60.2,118.5-128.3C217.4,347.5,159.9,294.5,91.8,297.2z M101.6,542.7c-67.4,2.7-124.2-49.8-126.9-117.2
				C-28,358.1,24.5,301.3,91.8,298.6c67.4-2.7,124.2,49.7,126.9,117.1C221.5,483.1,169,540,101.6,542.7z"/>
		</g>
		<g>
			<path d="M4.2,488.9l-71.6,71.9c-5.8,5.8-8,13-4.9,16.1l13.4,13.3c3.1,3.1,10.3,0.9,16.1-4.9l71.6-71.9
				C19.4,506.5,11.1,498.3,4.2,488.9z"/>
		</g>
		<g>
			<path d="M265.8,264.4l-13.4-13.3c-3.1-3.1-10.3-0.9-16.1,4.9l-71.6,71.9c9.4,6.9,17.7,15.1,24.7,24.5l71.6-71.9
				C266.7,274.7,268.9,267.5,265.8,264.4z"/>
		</g>
	</g>
</g>
<g id="Layer_3" class="st5">
	<path class="st15" d="M97.7,433.7c-22.9,0-41.5,18.6-41.5,41.5c0,15.5,8.5,29.1,21.2,36.2v-37.2l10.2-5.8l10.2-5.8l10.2,5.8
		l10.2,5.8l0,0v37.2c12.6-7.1,21.2-20.6,21.2-36.2C139.2,452.3,120.7,433.7,97.7,433.7z"/>
	<g class="st6">
		<path d="M2.2,264.6c29.5-17.5,61.9-25.5,92.6-24.2l4.8-30.3h-0.1l1.1-10.4l-3.4-13.1L84.5,187l-6.3,13.5l-1.1,10.4
			c-3.2,0.3-6.4,0.7-9.6,1.1l-0.7-10.1l-5.8-12l-12.7,2.6l-4,14l0.7,10.1c-3.2,0.8-6.4,1.8-9.5,2.7l-2.6-9.6l-8-10.6l-12.4,4.6
			L11,217.8l2.6,9.6c-3.1,1.3-6.1,2.8-9.1,4.2L0,223l-10-8.8l-11.7,6.6l1.1,13.8l4.3,8.8c-2.8,1.8-5.7,3.7-8.4,5.6l-6-7.7l-11.7-6.7
			l-10.6,8.3l3.6,13.1l6,7.7c-2.5,2.2-5,4.5-7.5,6.8l-7.4-6.4l-13.1-4.5l-9.3,9.8l6,11.9l7.4,6.4c-2.2,2.6-4.3,5.2-6.3,7.8l-8.6-4.9
			l-14-2.1l-7.5,10.9l8.2,10.4l8.6,4.9c-1.7,2.8-3.4,5.7-5,8.6l-9.6-3.2l-14.5,0.5l-5.6,11.8l10.2,8.6l9.6,3.2c-1.2,3-2.4,6-3.5,9.1
			l-10.3-1.4l-14.6,2.8l-3.6,12.2l11,6.1l41.4,5.2c6.2-30,21.7-59.5,45.7-83.9l0,0l0.6-0.6l24.4,30.6c12-10.1,24.6-19.5,37.3-28.8
			L2.2,264.6z"/>
		<path class="st16" d="M2.2,264.6c29.5-17.5,61.9-25.5,92.6-24.2l4.8-30.3h-0.1l1.1-10.4l-3.4-13.1L84.5,187l-6.3,13.5l-1.1,10.4
			c-3.2,0.3-6.4,0.7-9.6,1.1l-0.7-10.1l-5.8-12l-12.7,2.6l-4,14l0.7,10.1c-3.2,0.8-6.4,1.8-9.5,2.7l-2.6-9.6l-8-10.6l-12.4,4.6
			L11,217.8l2.6,9.6c-3.1,1.3-6.1,2.8-9.1,4.2L0,223l-10-8.8l-11.7,6.6l1.1,13.8l4.3,8.8c-2.8,1.8-5.7,3.7-8.4,5.6l-6-7.7l-11.7-6.7
			l-10.6,8.3l3.6,13.1l6,7.7c-2.5,2.2-5,4.5-7.5,6.8l-7.4-6.4l-13.1-4.5l-9.3,9.8l6,11.9l7.4,6.4c-2.2,2.6-4.3,5.2-6.3,7.8l-8.6-4.9
			l-14-2.1l-7.5,10.9l8.2,10.4l8.6,4.9c-1.7,2.8-3.4,5.7-5,8.6l-9.6-3.2l-14.5,0.5l-5.6,11.8l10.2,8.6l9.6,3.2c-1.2,3-2.4,6-3.5,9.1
			l-10.3-1.4l-14.6,2.8l-3.6,12.2l11,6.1l41.4,5.2c6.2-30,21.7-59.5,45.7-83.9l0,0l0.6-0.6l24.4,30.6c12-10.1,24.6-19.5,37.3-28.8
			L2.2,264.6z"/>
	</g>
</g>
</svg>
